<mxfile host="app.diagrams.net" agent="Mozilla/5.0 (Windows NT 10.0; Win64; x64) AppleWebKit/537.36 (KHTML, like Gecko) Chrome/128.0.0.0 Safari/537.36" version="24.7.8">
  <diagram id="R2lEEEUBdFMjLlhIrx00" name="Page-1">
    <mxGraphModel dx="1114" dy="566" grid="1" gridSize="10" guides="1" tooltips="1" connect="1" arrows="1" fold="1" page="1" pageScale="1" pageWidth="850" pageHeight="1100" math="0" shadow="0" extFonts="Permanent Marker^https://fonts.googleapis.com/css?family=Permanent+Marker">
      <root>
        <mxCell id="0" />
        <mxCell id="1" parent="0" />
        <mxCell id="jP1HKdKOwSLTzkVKQpbQ-1" value="CLIENTE" style="rounded=0;whiteSpace=wrap;html=1;" parent="1" vertex="1">
          <mxGeometry x="200" y="260" width="120" height="60" as="geometry" />
        </mxCell>
        <mxCell id="jP1HKdKOwSLTzkVKQpbQ-2" value="COMPRA" style="rhombus;whiteSpace=wrap;html=1;rounded=0;" parent="1" vertex="1">
          <mxGeometry x="425" y="250" width="80" height="80" as="geometry" />
        </mxCell>
        <mxCell id="jP1HKdKOwSLTzkVKQpbQ-7" value="" style="edgeStyle=orthogonalEdgeStyle;rounded=0;orthogonalLoop=1;jettySize=auto;html=1;strokeColor=none;" parent="1" source="jP1HKdKOwSLTzkVKQpbQ-4" target="jP1HKdKOwSLTzkVKQpbQ-6" edge="1">
          <mxGeometry relative="1" as="geometry" />
        </mxCell>
        <mxCell id="jP1HKdKOwSLTzkVKQpbQ-4" value="PRODUCTO" style="whiteSpace=wrap;html=1;rounded=0;" parent="1" vertex="1">
          <mxGeometry x="565" y="260" width="120" height="60" as="geometry" />
        </mxCell>
        <mxCell id="jP1HKdKOwSLTzkVKQpbQ-9" value="" style="edgeStyle=orthogonalEdgeStyle;rounded=1;orthogonalLoop=1;jettySize=auto;html=1;curved=0;strokeColor=none;" parent="1" source="jP1HKdKOwSLTzkVKQpbQ-6" target="jP1HKdKOwSLTzkVKQpbQ-8" edge="1">
          <mxGeometry relative="1" as="geometry" />
        </mxCell>
        <mxCell id="jP1HKdKOwSLTzkVKQpbQ-6" value="SUMINISTRA" style="rhombus;whiteSpace=wrap;html=1;rounded=0;" parent="1" vertex="1">
          <mxGeometry x="572.5" y="390" width="105" height="100" as="geometry" />
        </mxCell>
        <mxCell id="jP1HKdKOwSLTzkVKQpbQ-8" value="PROVEEDORES" style="whiteSpace=wrap;html=1;rounded=0;" parent="1" vertex="1">
          <mxGeometry x="565" y="560" width="120" height="60" as="geometry" />
        </mxCell>
        <mxCell id="jP1HKdKOwSLTzkVKQpbQ-12" value="NOMBRES" style="ellipse;whiteSpace=wrap;html=1;" parent="1" vertex="1">
          <mxGeometry x="290" y="170" width="80" height="40" as="geometry" />
        </mxCell>
        <mxCell id="jP1HKdKOwSLTzkVKQpbQ-14" value="" style="endArrow=none;html=1;rounded=0;" parent="1" edge="1">
          <mxGeometry width="50" height="50" relative="1" as="geometry">
            <mxPoint x="285" y="260" as="sourcePoint" />
            <mxPoint x="335" y="210" as="targetPoint" />
          </mxGeometry>
        </mxCell>
        <mxCell id="jP1HKdKOwSLTzkVKQpbQ-15" value="APELLIDOS" style="ellipse;whiteSpace=wrap;html=1;" parent="1" vertex="1">
          <mxGeometry x="180" y="170" width="80" height="40" as="geometry" />
        </mxCell>
        <mxCell id="jP1HKdKOwSLTzkVKQpbQ-16" value="" style="endArrow=none;html=1;rounded=0;" parent="1" target="jP1HKdKOwSLTzkVKQpbQ-15" edge="1">
          <mxGeometry width="50" height="50" relative="1" as="geometry">
            <mxPoint x="240" y="260" as="sourcePoint" />
            <mxPoint x="290" y="210" as="targetPoint" />
          </mxGeometry>
        </mxCell>
        <mxCell id="jP1HKdKOwSLTzkVKQpbQ-17" value="DNI" style="ellipse;whiteSpace=wrap;html=1;" parent="1" vertex="1">
          <mxGeometry x="80" y="200" width="90" height="40" as="geometry" />
        </mxCell>
        <mxCell id="jP1HKdKOwSLTzkVKQpbQ-18" value="DIFECCIÓN" style="ellipse;whiteSpace=wrap;html=1;" parent="1" vertex="1">
          <mxGeometry x="40" y="270" width="100" height="40" as="geometry" />
        </mxCell>
        <mxCell id="jP1HKdKOwSLTzkVKQpbQ-19" value="FEC. NAC." style="ellipse;whiteSpace=wrap;html=1;" parent="1" vertex="1">
          <mxGeometry x="80" y="350" width="90" height="40" as="geometry" />
        </mxCell>
        <mxCell id="jP1HKdKOwSLTzkVKQpbQ-20" value="" style="endArrow=none;html=1;rounded=0;entryX=0;entryY=0.5;entryDx=0;entryDy=0;exitX=1;exitY=0.5;exitDx=0;exitDy=0;" parent="1" source="jP1HKdKOwSLTzkVKQpbQ-18" target="jP1HKdKOwSLTzkVKQpbQ-1" edge="1">
          <mxGeometry width="50" height="50" relative="1" as="geometry">
            <mxPoint x="140" y="300" as="sourcePoint" />
            <mxPoint x="190" y="250" as="targetPoint" />
          </mxGeometry>
        </mxCell>
        <mxCell id="jP1HKdKOwSLTzkVKQpbQ-21" value="" style="endArrow=none;html=1;rounded=0;entryX=1.011;entryY=0.75;entryDx=0;entryDy=0;entryPerimeter=0;" parent="1" target="jP1HKdKOwSLTzkVKQpbQ-17" edge="1">
          <mxGeometry width="50" height="50" relative="1" as="geometry">
            <mxPoint x="200" y="260" as="sourcePoint" />
            <mxPoint x="250" y="210" as="targetPoint" />
          </mxGeometry>
        </mxCell>
        <mxCell id="jP1HKdKOwSLTzkVKQpbQ-22" value="" style="endArrow=none;html=1;rounded=0;" parent="1" edge="1">
          <mxGeometry width="50" height="50" relative="1" as="geometry">
            <mxPoint x="170" y="370" as="sourcePoint" />
            <mxPoint x="220" y="320" as="targetPoint" />
          </mxGeometry>
        </mxCell>
        <mxCell id="jP1HKdKOwSLTzkVKQpbQ-23" value="CÓDIGO" style="ellipse;whiteSpace=wrap;html=1;" parent="1" vertex="1">
          <mxGeometry x="557.5" y="140" width="92.5" height="50" as="geometry" />
        </mxCell>
        <mxCell id="jP1HKdKOwSLTzkVKQpbQ-24" value="NOMBRE" style="ellipse;whiteSpace=wrap;html=1;" parent="1" vertex="1">
          <mxGeometry x="700" y="170" width="97.5" height="50" as="geometry" />
        </mxCell>
        <mxCell id="jP1HKdKOwSLTzkVKQpbQ-26" value="PRECIO UNITARIO" style="ellipse;whiteSpace=wrap;html=1;" parent="1" vertex="1">
          <mxGeometry x="740" y="250" width="100" height="50" as="geometry" />
        </mxCell>
        <mxCell id="jP1HKdKOwSLTzkVKQpbQ-27" value="" style="endArrow=none;html=1;rounded=0;" parent="1" edge="1">
          <mxGeometry width="50" height="50" relative="1" as="geometry">
            <mxPoint x="660" y="260" as="sourcePoint" />
            <mxPoint x="710" y="210" as="targetPoint" />
          </mxGeometry>
        </mxCell>
        <mxCell id="jP1HKdKOwSLTzkVKQpbQ-28" value="" style="endArrow=none;html=1;rounded=0;entryX=0.5;entryY=1;entryDx=0;entryDy=0;exitX=0.325;exitY=0;exitDx=0;exitDy=0;exitPerimeter=0;" parent="1" source="jP1HKdKOwSLTzkVKQpbQ-4" target="jP1HKdKOwSLTzkVKQpbQ-23" edge="1">
          <mxGeometry width="50" height="50" relative="1" as="geometry">
            <mxPoint x="604" y="250" as="sourcePoint" />
            <mxPoint x="650" y="210" as="targetPoint" />
          </mxGeometry>
        </mxCell>
        <mxCell id="jP1HKdKOwSLTzkVKQpbQ-29" value="" style="endArrow=none;html=1;rounded=0;exitX=1;exitY=0.5;exitDx=0;exitDy=0;" parent="1" source="jP1HKdKOwSLTzkVKQpbQ-4" edge="1">
          <mxGeometry width="50" height="50" relative="1" as="geometry">
            <mxPoint x="690" y="330" as="sourcePoint" />
            <mxPoint x="740" y="280" as="targetPoint" />
          </mxGeometry>
        </mxCell>
        <mxCell id="jP1HKdKOwSLTzkVKQpbQ-30" value="NIF" style="ellipse;whiteSpace=wrap;html=1;" parent="1" vertex="1">
          <mxGeometry x="708.75" y="680" width="80" height="40" as="geometry" />
        </mxCell>
        <mxCell id="jP1HKdKOwSLTzkVKQpbQ-31" value="NOMBRE" style="ellipse;whiteSpace=wrap;html=1;" parent="1" vertex="1">
          <mxGeometry x="590" y="680" width="95" height="40" as="geometry" />
        </mxCell>
        <mxCell id="jP1HKdKOwSLTzkVKQpbQ-32" value="DIRECCIÓN" style="ellipse;whiteSpace=wrap;html=1;" parent="1" vertex="1">
          <mxGeometry x="460" y="680" width="97.5" height="40" as="geometry" />
        </mxCell>
        <mxCell id="jP1HKdKOwSLTzkVKQpbQ-33" value="" style="endArrow=none;html=1;rounded=0;entryX=0.25;entryY=1;entryDx=0;entryDy=0;" parent="1" target="jP1HKdKOwSLTzkVKQpbQ-8" edge="1">
          <mxGeometry width="50" height="50" relative="1" as="geometry">
            <mxPoint x="530" y="680" as="sourcePoint" />
            <mxPoint x="580" y="630" as="targetPoint" />
          </mxGeometry>
        </mxCell>
        <mxCell id="jP1HKdKOwSLTzkVKQpbQ-34" value="" style="endArrow=none;html=1;rounded=0;entryX=0.5;entryY=1;entryDx=0;entryDy=0;" parent="1" target="jP1HKdKOwSLTzkVKQpbQ-8" edge="1">
          <mxGeometry width="50" height="50" relative="1" as="geometry">
            <mxPoint x="627.5" y="680" as="sourcePoint" />
            <mxPoint x="630" y="630" as="targetPoint" />
          </mxGeometry>
        </mxCell>
        <mxCell id="jP1HKdKOwSLTzkVKQpbQ-35" value="" style="endArrow=none;html=1;rounded=0;entryX=0.75;entryY=1;entryDx=0;entryDy=0;" parent="1" target="jP1HKdKOwSLTzkVKQpbQ-8" edge="1">
          <mxGeometry width="50" height="50" relative="1" as="geometry">
            <mxPoint x="740" y="680" as="sourcePoint" />
            <mxPoint x="790" y="630" as="targetPoint" />
          </mxGeometry>
        </mxCell>
        <mxCell id="jP1HKdKOwSLTzkVKQpbQ-38" value="" style="endArrow=none;html=1;rounded=0;exitX=1;exitY=0.5;exitDx=0;exitDy=0;entryX=0;entryY=0.5;entryDx=0;entryDy=0;" parent="1" source="jP1HKdKOwSLTzkVKQpbQ-1" target="jP1HKdKOwSLTzkVKQpbQ-2" edge="1">
          <mxGeometry width="50" height="50" relative="1" as="geometry">
            <mxPoint x="610" y="340" as="sourcePoint" />
            <mxPoint x="420" y="290" as="targetPoint" />
          </mxGeometry>
        </mxCell>
        <mxCell id="jP1HKdKOwSLTzkVKQpbQ-39" value="" style="endArrow=none;html=1;rounded=0;exitX=0;exitY=0.5;exitDx=0;exitDy=0;" parent="1" source="jP1HKdKOwSLTzkVKQpbQ-4" edge="1">
          <mxGeometry width="50" height="50" relative="1" as="geometry">
            <mxPoint x="455" y="340" as="sourcePoint" />
            <mxPoint x="505" y="290" as="targetPoint" />
          </mxGeometry>
        </mxCell>
        <mxCell id="jP1HKdKOwSLTzkVKQpbQ-40" value="" style="endArrow=none;html=1;rounded=0;entryX=0.5;entryY=1;entryDx=0;entryDy=0;" parent="1" target="jP1HKdKOwSLTzkVKQpbQ-6" edge="1">
          <mxGeometry width="50" height="50" relative="1" as="geometry">
            <mxPoint x="625" y="560" as="sourcePoint" />
            <mxPoint x="622.5" y="490" as="targetPoint" />
          </mxGeometry>
        </mxCell>
        <mxCell id="jP1HKdKOwSLTzkVKQpbQ-41" value="" style="endArrow=none;html=1;rounded=0;exitX=0.5;exitY=0;exitDx=0;exitDy=0;" parent="1" source="jP1HKdKOwSLTzkVKQpbQ-6" edge="1">
          <mxGeometry width="50" height="50" relative="1" as="geometry">
            <mxPoint x="620" y="390" as="sourcePoint" />
            <mxPoint x="625" y="320" as="targetPoint" />
          </mxGeometry>
        </mxCell>
        <mxCell id="jP1HKdKOwSLTzkVKQpbQ-42" value="N" style="text;html=1;align=center;verticalAlign=middle;resizable=0;points=[];autosize=1;strokeColor=none;fillColor=none;" parent="1" vertex="1">
          <mxGeometry x="325" y="268" width="30" height="30" as="geometry" />
        </mxCell>
        <mxCell id="jP1HKdKOwSLTzkVKQpbQ-43" value="1" style="text;html=1;align=center;verticalAlign=middle;resizable=0;points=[];autosize=1;strokeColor=none;fillColor=none;" parent="1" vertex="1">
          <mxGeometry x="535" y="268" width="30" height="30" as="geometry" />
        </mxCell>
        <mxCell id="jP1HKdKOwSLTzkVKQpbQ-44" value="N" style="text;html=1;align=center;verticalAlign=middle;resizable=0;points=[];autosize=1;strokeColor=none;fillColor=none;" parent="1" vertex="1">
          <mxGeometry x="625" y="318" width="30" height="30" as="geometry" />
        </mxCell>
        <mxCell id="jP1HKdKOwSLTzkVKQpbQ-45" value="1" style="text;html=1;align=center;verticalAlign=middle;resizable=0;points=[];autosize=1;strokeColor=none;fillColor=none;" parent="1" vertex="1">
          <mxGeometry x="625" y="538" width="30" height="30" as="geometry" />
        </mxCell>
        <mxCell id="jP1HKdKOwSLTzkVKQpbQ-46" value="MODELO ENTIDAD RELACIÓN DE UNA EMPRESA" style="text;html=1;align=center;verticalAlign=middle;resizable=0;points=[];autosize=1;strokeColor=none;fillColor=none;" parent="1" vertex="1">
          <mxGeometry x="290" y="28" width="310" height="30" as="geometry" />
        </mxCell>
        <mxCell id="cgfGrVNWPH-obBQzotxg-1" value="N:1" style="text;html=1;align=center;verticalAlign=middle;resizable=0;points=[];autosize=1;strokeColor=none;fillColor=none;" vertex="1" parent="1">
          <mxGeometry x="440" y="218" width="40" height="30" as="geometry" />
        </mxCell>
        <mxCell id="cgfGrVNWPH-obBQzotxg-2" value="N:1" style="text;html=1;align=center;verticalAlign=middle;resizable=0;points=[];autosize=1;strokeColor=none;fillColor=none;" vertex="1" parent="1">
          <mxGeometry x="670" y="428" width="40" height="30" as="geometry" />
        </mxCell>
      </root>
    </mxGraphModel>
  </diagram>
</mxfile>
